<?xml version="1.0" encoding="UTF-8"?>
<svg width="776px" height="622px" viewBox="0 0 776 622" version="1.1" xmlns="http://www.w3.org/2000/svg" xmlns:xlink="http://www.w3.org/1999/xlink">
    <!-- Generator: Sketch 63 (92445) - https://sketch.com -->
    <title>zelic91</title>
    <desc>Created with Sketch.</desc>
    <defs>
        <linearGradient x1="50%" y1="0%" x2="50%" y2="100%" id="linearGradient-1">
            <stop stop-color="#7D88A7" offset="0%"></stop>
            <stop stop-color="#2A3350" offset="100%"></stop>
        </linearGradient>
        <linearGradient x1="50%" y1="26.5370289%" x2="50%" y2="100%" id="linearGradient-2">
            <stop stop-color="#FDCB6E" offset="0%"></stop>
            <stop stop-color="#D9920E" offset="100%"></stop>
        </linearGradient>
    </defs>
    <g id="Page-1" stroke="none" stroke-width="1" fill="none" fill-rule="evenodd">
        <g id="App-Icon-Copy-4" transform="translate(-124.000000, -160.000000)" fill-rule="nonzero">
            <g id="zelic91" transform="translate(124.000000, 160.000000)">
                <path d="M180,621.992952 L180,605.761042 C157.72973,601.156246 141.675676,592.925171 131.837838,581.067819 C122,569.210466 117.081081,555.108276 117.081081,538.761246 C117.081081,521.723498 119.72973,501.692631 125.027027,478.668646 C130.324324,455.644661 132.972973,437.225473 132.972973,423.411082 C132.972973,409.136212 128.972973,394.055501 120.972973,378.168952 C112.972973,362.282402 100.972973,348.468011 84.972973,336.725779 C72.8648649,327.976665 53.4054054,319.112431 26.5945946,310.133076 C51.6756757,302.995641 69.9459459,295.397726 81.4054054,287.339331 C97.8378378,275.827339 110.432432,261.955388 119.189189,245.723479 C127.945946,229.491569 132.324324,213.54746 132.324324,197.89115 C132.324324,180.853401 129.72973,160.880094 124.540541,137.971229 C119.351351,115.062364 116.756757,95.8948971 116.756757,80.4688272 C116.756757,65.2729972 121.891892,51.746406 132.162162,39.8890538 C142.432432,28.0317016 158.378378,19.9157469 180,15.5411898 L180,15.5411898 L180,0 C160.108108,0.690719547 144.324324,2.76287819 132.648649,6.21647592 C117.513514,10.5910331 103.567568,17.6133484 90.8108108,27.2834221 C78.0540541,36.9534958 67.4594595,49.5015675 59.027027,64.9276374 C50.5945946,80.3537073 46.3783784,95.5495373 46.3783784,110.515127 C46.3783784,124.789998 49.7297297,145.626704 56.4324324,173.025246 C61.1891892,192.595634 63.5675676,210.208982 63.5675676,225.865292 C63.5675676,244.975199 58.1621622,261.207109 47.3513514,274.56102 C36.5405405,287.914931 20.7567568,296.433805 0,300.117643 L0,300.117643 L0,321.184589 C20.7567568,324.868427 36.5405405,333.099501 47.3513514,345.877813 C58.1621622,358.656125 63.5675676,374.139754 63.5675676,392.328703 C63.5675676,408.445492 61.0810811,426.74956 56.1081081,447.240907 C49.4054054,474.869688 46.0540541,496.627354 46.0540541,512.513904 C46.0540541,528.860933 51.0810811,545.726002 61.1351351,563.10911 C71.1891892,580.492219 86.1081081,594.70953 105.891892,605.761042 C125.675676,616.812555 146.594595,622.223192 168.648649,621.992952 L168.648649,621.992952 L180,621.992952 Z" id="{" fill="url(#linearGradient-1)"></path>
                <path d="M776,621.992952 L776,605.761042 C753.72973,601.156246 737.675676,592.925171 727.837838,581.067819 C718,569.210466 713.081081,555.108276 713.081081,538.761246 C713.081081,521.723498 715.72973,501.692631 721.027027,478.668646 C726.324324,455.644661 728.972973,437.225473 728.972973,423.411082 C728.972973,409.136212 724.972973,394.055501 716.972973,378.168952 C708.972973,362.282402 696.972973,348.468011 680.972973,336.725779 C668.864865,327.976665 649.405405,319.112431 622.594595,310.133076 C647.675676,302.995641 665.945946,295.397726 677.405405,287.339331 C693.837838,275.827339 706.432432,261.955388 715.189189,245.723479 C723.945946,229.491569 728.324324,213.54746 728.324324,197.89115 C728.324324,180.853401 725.72973,160.880094 720.540541,137.971229 C715.351351,115.062364 712.756757,95.8948971 712.756757,80.4688272 C712.756757,65.2729972 717.891892,51.746406 728.162162,39.8890538 C738.432432,28.0317016 754.378378,19.9157469 776,15.5411898 L776,15.5411898 L776,0 C756.108108,0.690719547 740.324324,2.76287819 728.648649,6.21647592 C713.513514,10.5910331 699.567568,17.6133484 686.810811,27.2834221 C674.054054,36.9534958 663.459459,49.5015675 655.027027,64.9276374 C646.594595,80.3537073 642.378378,95.5495373 642.378378,110.515127 C642.378378,124.789998 645.72973,145.626704 652.432432,173.025246 C657.189189,192.595634 659.567568,210.208982 659.567568,225.865292 C659.567568,244.975199 654.162162,261.207109 643.351351,274.56102 C632.540541,287.914931 616.756757,296.433805 596,300.117643 L596,300.117643 L596,321.184589 C616.756757,324.868427 632.540541,333.099501 643.351351,345.877813 C654.162162,358.656125 659.567568,374.139754 659.567568,392.328703 C659.567568,408.445492 657.081081,426.74956 652.108108,447.240907 C645.405405,474.869688 642.054054,496.627354 642.054054,512.513904 C642.054054,528.860933 647.081081,545.726002 657.135135,563.10911 C667.189189,580.492219 682.108108,594.70953 701.891892,605.761042 C721.675676,616.812555 742.594595,622.223192 764.648649,621.992952 L764.648649,621.992952 L776,621.992952 Z" id="{-copy" fill="url(#linearGradient-1)" transform="translate(686.000000, 311.000000) scale(-1, 1) translate(-686.000000, -311.000000) "></path>
                <path d="M481.068182,456 C495.431818,456 508,443.478261 508,427.378882 C508,412.47205 495.431818,400.546584 481.068182,400.546584 L358.977273,400.546584 L498.424242,219.279503 C502.613636,213.913043 505.007576,206.757764 505.007576,199.006211 C505.007576,181.118012 490.045455,168 475.083333,168 L298.530303,168 C283.568182,168 271,180.521739 271,195.428571 C271,211.52795 283.568182,224.049689 298.530303,224.049689 L415.833333,224.049689 L278.181818,402.931677 C273.992424,408.89441 271,416.049689 271,423.204969 C271,442.285714 285.363636,456 302.121212,456 L481.068182,456 Z" id="z" fill="url(#linearGradient-2)"></path>
            </g>
        </g>
    </g>
</svg>